<svg width="30" height="26" viewBox="0 0 30 26" fill="none" xmlns="http://www.w3.org/2000/svg">
<path d="M4.92269 0C5.51239 0 6.02004 0.415898 6.13285 0.990742L6.20977 1.625H27.7824C28.8234 1.625 29.6541 2.65332 29.3618 3.68977L26.5928 13.4418C26.3928 14.1426 25.7467 14.625 25.0134 14.625H8.75316L9.22492 17.0625H25.0237C25.7057 17.0625 26.2544 17.6059 26.2544 18.2812C26.2544 18.9566 25.7057 19.5 25.0237 19.5H8.15834C7.61479 19.5 7.10714 19.0836 6.99432 18.5098L3.90431 2.4375H1.23067C0.551239 2.4375 0 1.8916 0 1.21875C0 0.545898 0.551239 0 1.23067 0H4.92269ZM6.56359 23.5625C6.56359 22.2168 7.66607 21.125 9.02494 21.125C10.3838 21.125 11.4863 22.2168 11.4863 23.5625C11.4863 24.9082 10.3838 26 9.02494 26C7.66607 26 6.56359 24.9082 6.56359 23.5625ZM26.2544 23.5625C26.2544 24.9082 25.1519 26 23.793 26C22.4341 26 21.3317 24.9082 21.3317 23.5625C21.3317 22.2168 22.4341 21.125 23.793 21.125C25.1519 21.125 26.2544 22.2168 26.2544 23.5625Z" fill="#F4F4F2"/>
</svg>
